<?xml version="1.0" encoding="UTF-8"?>
<svg xmlns="http://www.w3.org/2000/svg" width="36" height="36" viewBox="0 0 2050 2050">
  <path d="M 0,235 C 0.520,231.917 1.039,228.833 1.559,225.750 C 4.326,209.334 7.035,196.735 10.080,186.129 C 34.489,101.109 101.398,34.211 186.129,10.108 C 199.944,6.178 207.191,4.679 235,0 C 363.333,0 491.667,0 620,0 C 622.750,0.325 625.500,0.649 628.250,0.974 C 632.787,1.510 655.625,2.658 679,3.524 C 768.533,6.842 850.925,13.008 933.500,22.572 C 1390.492,75.500 1706.557,221.610 1883.282,461.634 C 1982.439,596.307 2037.019,759.909 2048.041,955.500 C 2048.661,966.500 2049.355,975.612 2050,976 C 2050,1010 2050,1044 2050,1078 C 2049.845,1078 2049.691,1078 2049.536,1078 C 2049.281,1078 2048.401,1088.463 2047.581,1101.250 C 2045.633,1131.604 2043.570,1153.891 2040.430,1178.500 C 1996.398,1523.552 1799.209,1765.907 1448.500,1906.014 C 1243.915,1987.745 982.224,2035.491 678.500,2046.502 C 654.850,2047.359 631.787,2048.497 619,2050 C 491,2050 363,2050 235,2050 C 231.917,2049.480 228.833,2048.961 225.750,2048.441 C 209.334,2045.674 196.735,2042.965 186.129,2039.920 C 101.109,2015.511 34.211,1948.602 10.108,1863.871 C 6.178,1850.056 4.679,1842.809 0,1815 C 0,1800.333 0,1785.667 0,1771 C 0.520,1767.917 1.039,1764.833 1.559,1761.750 C 4.326,1745.334 7.035,1732.735 10.080,1722.129 C 34.493,1637.094 101.094,1570.493 186.129,1546.080 C 197.564,1542.797 213.360,1539.437 222.250,1538.397 C 225.413,1538.027 228,1537.399 228,1537 C 228,1536.601 225.413,1535.973 222.250,1535.603 C 213.360,1534.563 197.564,1531.203 186.129,1527.920 C 101.109,1503.511 34.211,1436.602 10.108,1351.871 C 6.178,1338.056 4.679,1330.809 0,1303 C 0,1288.333 0,1273.667 0,1259 C 0.520,1255.917 1.039,1252.833 1.559,1249.750 C 4.326,1233.334 7.035,1220.735 10.080,1210.129 C 34.493,1125.094 101.094,1058.493 186.129,1034.080 C 197.564,1030.797 213.360,1027.437 222.250,1026.397 C 225.413,1026.027 228,1025.399 228,1025 C 228,1024.601 225.413,1023.973 222.250,1023.603 C 213.360,1022.563 197.564,1019.203 186.129,1015.920 C 101.109,991.511 34.211,924.602 10.108,839.871 C 6.178,826.056 4.679,818.809 0,791 C 0,776.333 0,761.667 0,747 C 0.520,743.917 1.039,740.833 1.559,737.750 C 4.326,721.334 7.035,708.736 10.080,698.129 C 34.493,613.094 101.094,546.494 186.129,522.080 C 197.564,518.797 213.360,515.437 222.250,514.397 C 225.413,514.027 228,513.399 228,513 C 228,512.601 225.413,511.973 222.250,511.603 C 213.360,510.563 197.564,507.203 186.129,503.920 C 101.109,479.511 34.211,412.602 10.108,327.871 C 6.178,314.056 4.679,306.809 0,279 C 0,264.333 0,249.667 0,235 Z M 1280.605,1261.500 C 1279.707,1270.250 1280.967,1306.937 1282.512,1317 C 1294.857,1397.428 1340.841,1464.922 1410.248,1504.489 C 1427.830,1514.512 1464.732,1529.601 1466.743,1527.590 C 1467.082,1527.251 1466.396,1524.166 1465.217,1520.736 C 1444.091,1459.267 1461.590,1383.506 1503.444,1355.231 C 1507.634,1352.400 1513.748,1349.106 1517.031,1347.909 C 1520.314,1346.712 1523,1345.392 1523,1344.977 C 1523,1344.562 1521.443,1343.931 1519.540,1343.574 C 1517.637,1343.217 1512.350,1341.068 1507.790,1338.800 C 1496.049,1332.959 1484.905,1321.759 1479.135,1310 C 1472.285,1296.040 1470.439,1282.124 1473.499,1267.500 C 1477.341,1249.136 1491.120,1231.417 1508,1223.135 C 1527.256,1213.686 1546.744,1213.686 1566,1223.135 C 1577.927,1228.987 1589.013,1240.073 1594.865,1252 C 1601.715,1265.960 1603.561,1279.876 1600.501,1294.500 C 1596.690,1312.715 1582.941,1330.477 1566.210,1338.800 C 1561.650,1341.068 1556.363,1343.217 1554.460,1343.574 C 1552.557,1343.931 1551,1344.567 1551,1344.989 C 1551,1345.411 1553.681,1346.759 1556.958,1347.984 C 1581.584,1357.193 1603.181,1385.495 1612.047,1420.173 C 1620.713,1454.069 1619.567,1489.421 1608.787,1520.736 C 1607.606,1524.166 1606.918,1527.251 1607.257,1527.590 C 1607.596,1527.929 1612.290,1526.749 1617.687,1524.967 C 1702.635,1496.919 1768.022,1424.938 1787.529,1338 C 1792.333,1316.590 1793.441,1305.909 1793.441,1281 C 1793.441,1256.091 1792.333,1245.410 1787.529,1224 C 1766.087,1128.436 1689.564,1051.913 1594,1030.471 C 1572.590,1025.667 1561.909,1024.559 1537,1024.559 C 1512.091,1024.559 1501.410,1025.667 1480,1030.471 C 1401.256,1048.139 1333.509,1104.232 1301.518,1178.248 C 1290.239,1204.343 1283.870,1229.701 1280.605,1261.500 Z" fill="#360EFF" stroke="none" />
</svg>
