<svg xmlns="http://www.w3.org/2000/svg" viewBox="0 0 257.0 641.0" fill="#000000">
<g transform="translate(0.000000,641.000000) scale(0.100000,-0.100000)" stroke="none">
<path d="M2 3683 c1 -1501 4 -2654 5 -2563 38 2667 298 4346 775 4992 110 149 276 266 408 287 35 5 -170 9 -567 10 l-623 1 2 -2727z M1365 6400 c706 -108 1102 -1682 1185 -4710 6 -217 12 -469 13 -560 1 -91 4 1060 5 2558 l2 2722 -627 -1 c-346 -1 -605 -5 -578 -9z M1520 5121 c-92 -30 -163 -90 -207 -174 -24 -45 -28 -63 -28 -142 0 -79 4 -97 28 -142 15 -29 43 -68 62 -88 38 -37 130 -89 144 -81 4 3 11 32 14 65 4 33 15 82 26 110 l19 51 -29 29 c-17 18 -29 40 -29 56 0 35 50 85 85 85 35 0 85 -50 85 -85 0 -16 -12 -38 -30 -56 -28 -28 -29 -32 -16 -57 16 -32 36 -121 36 -162 0 -41 13 -44 69 -15 64 32 114 82 148 148 24 45 28 63 28 142 0 79 -4 97 -28 142 -59 113 -154 174 -277 179 -41 2 -86 0 -100 -5z M0 138 l0 -138 138 0 137 1 -53 18 c-92 32 -171 111 -203 203 l-18 53 -1 -137z M2552 226 c-22 -84 -112 -175 -204 -207 l-53 -18 138 -1 137 0 0 135 c0 74 -1 135 -3 135 -2 0 -8 -20 -15 -44z M627 211 c-30 -86 -118 -168 -210 -197 -37 -11 -9 -13 228 -13 237 0 265 2 228 13 -92 29 -178 109 -210 197 l-19 48 -17 -48z M1267 211 c-30 -86 -118 -168 -210 -197 -37 -11 -9 -13 228 -13 237 0 265 2 228 13 -92 29 -178 109 -210 197 l-19 48 -17 -48z M1907 211 c-30 -86 -118 -168 -210 -197 -37 -11 -9 -13 228 -13 237 0 265 2 228 13 -92 29 -178 109 -210 197 l-19 48 -17 -48z"/>
</g>
</svg>