<svg xmlns="http://www.w3.org/2000/svg" viewBox="0 0 257.0 1025.0" fill="#000000">
<g transform="translate(0.000000,1025.000000) scale(0.100000,-0.100000)" stroke="none">
<path d="M2 5803 c1 -2581 4 -4190 9 -3833 27 2241 114 4039 260 5370 156 1428 385 2341 679 2709 82 104 182 175 269 192 20 4 -246 7 -591 8 l-628 1 2 -4447z M1346 10240 c80 -16 137 -52 224 -139 96 -97 155 -189 232 -362 453 -1016 707 -3620 757 -7759 5 -357 8 1249 9 3828 l2 4442 -632 -1 c-355 -1 -615 -5 -592 -9z M1520 8961 c-92 -30 -163 -90 -207 -174 -24 -45 -28 -63 -28 -142 0 -79 4 -97 28 -142 15 -29 43 -68 62 -88 38 -37 130 -89 144 -81 4 3 11 32 14 65 4 33 15 82 26 110 l19 51 -29 29 c-17 18 -29 40 -29 56 0 35 50 85 85 85 35 0 85 -50 85 -85 0 -16 -12 -38 -30 -56 -28 -28 -29 -32 -16 -57 16 -32 36 -121 36 -162 0 -41 13 -44 69 -15 64 32 114 82 148 148 24 45 28 63 28 142 0 79 -4 97 -28 142 -59 113 -154 174 -277 179 -41 2 -86 0 -100 -5z M0 138 l0 -138 138 0 137 1 -53 18 c-92 32 -171 111 -203 203 l-18 53 -1 -137z M2552 226 c-22 -84 -112 -175 -204 -207 l-53 -18 138 -1 137 0 0 135 c0 74 -1 135 -3 135 -2 0 -8 -20 -15 -44z M627 211 c-30 -86 -118 -168 -210 -197 -37 -11 -9 -13 228 -13 237 0 265 2 228 13 -92 29 -178 109 -210 197 l-19 48 -17 -48z M1267 211 c-30 -86 -118 -168 -210 -197 -37 -11 -9 -13 228 -13 237 0 265 2 228 13 -92 29 -178 109 -210 197 l-19 48 -17 -48z M1907 211 c-30 -86 -118 -168 -210 -197 -37 -11 -9 -13 228 -13 237 0 265 2 228 13 -92 29 -178 109 -210 197 l-19 48 -17 -48z"/>
</g>
</svg>