<svg xmlns="http://www.w3.org/2000/svg" viewBox="0 0 1025.0 513.0" fill="#000000">
<g transform="translate(0.000000,513.000000) scale(0.100000,-0.100000)" stroke="none">
<path d="M2 3278 c1 -1019 3 -1821 5 -1783 47 1217 507 2134 1373 2740 768 537 1865 834 3270 884 133 5 -777 9 -2212 9 l-2438 2 2 -1852z M5595 5119 c1400 -51 2506 -350 3277 -885 232 -161 510 -422 668 -625 441 -568 669 -1252 703 -2114 2 -38 4 764 5 1783 l2 1852 -2437 -2 c-1432 0 -2347 -4 -2218 -9z M6902 3835 c-138 -31 -282 -124 -368 -238 -248 -328 -138 -793 231 -972 39 -18 82 -37 96 -40 26 -6 26 -6 33 67 15 152 54 300 96 358 12 17 21 32 19 33 -2 1 -22 12 -44 23 -46 25 -85 89 -85 139 0 18 10 51 23 75 26 50 90 90 142 90 52 0 116 -40 142 -90 29 -54 29 -95 0 -149 -18 -36 -55 -66 -105 -87 -1 -1 11 -23 27 -50 37 -59 66 -168 82 -310 l13 -105 25 6 c51 12 167 75 223 120 246 198 309 559 146 832 -42 72 -149 179 -221 221 -134 80 -326 111 -475 77z M1 593 l-1 -593 593 1 c356 1 567 5 529 10 -576 75 -1036 535 -1111 1111 -5 38 -9 -173 -10 -529z M10240 1143 c0 -48 -31 -188 -60 -273 -154 -456 -571 -797 -1052 -859 -38 -5 173 -9 530 -10 l592 -1 0 590 c0 325 -2 590 -5 590 -3 0 -5 -17 -5 -37z M2557 1109 c-10 -87 -52 -235 -92 -328 -178 -417 -568 -712 -1017 -770 -35 -5 463 -8 1117 -8 654 0 1152 3 1117 8 -565 73 -1009 505 -1105 1074 l-14 80 -6 -56z M5117 1109 c-10 -87 -52 -235 -92 -328 -178 -417 -568 -712 -1017 -770 -35 -5 463 -8 1117 -8 654 0 1152 3 1117 8 -565 73 -1009 505 -1105 1074 l-14 80 -6 -56z M7677 1109 c-10 -87 -52 -235 -92 -328 -178 -417 -568 -712 -1017 -770 -35 -5 463 -8 1117 -8 654 0 1152 3 1117 8 -565 73 -1009 505 -1105 1074 l-14 80 -6 -56z"/>
</g>
</svg>