<svg xmlns="http://www.w3.org/2000/svg" viewBox="0 0 257.0 129.0" fill="#000000">
<g transform="translate(0.000000,129.000000) scale(0.100000,-0.100000)" stroke="none">
<path d="M1 858 c1 -385 2 -424 13 -353 32 205 109 360 238 481 172 162 435 261 778 293 66 6 -74 9 -467 10 l-563 1 1 -432z M1540 1279 c603 -56 944 -313 1015 -768 12 -79 13 -53 14 347 l1 432 -562 -1 c-394 -1 -534 -4 -468 -10z M1705 956 c-44 -19 -92 -78 -100 -124 -8 -51 16 -112 61 -152 43 -37 64 -39 64 -5 0 14 6 41 14 60 12 29 12 34 0 39 -22 8 -17 54 7 66 16 9 25 8 40 -6 23 -21 24 -32 4 -54 -12 -13 -13 -23 -5 -44 5 -15 10 -41 10 -57 0 -16 5 -29 11 -29 27 0 79 44 98 84 27 54 26 91 -1 146 -38 74 -129 108 -203 76z M1 138 l-1 -138 138 1 c125 0 134 1 97 13 -63 20 -97 41 -141 88 -46 47 -61 73 -80 133 -12 37 -13 28 -13 -97z M626 223 c-32 -98 -106 -171 -206 -206 -43 -15 -33 -16 225 -16 237 0 265 2 228 13 -96 31 -180 111 -211 204 l-19 57 -17 -52z M1267 221 c-34 -97 -107 -170 -200 -202 l-52 -18 270 0 270 0 -52 18 c-93 32 -156 95 -197 195 l-22 54 -17 -47z M1907 216 c-29 -89 -114 -172 -210 -202 -37 -11 -9 -13 228 -13 258 0 268 1 225 16 -99 34 -174 108 -205 204 -9 27 -18 49 -19 49 -1 0 -10 -24 -19 -54z M2560 253 c-1 -34 -41 -108 -83 -151 -45 -47 -80 -68 -142 -88 -37 -12 -28 -13 98 -13 l137 -1 0 135 c0 74 -2 135 -5 135 -3 0 -5 -8 -5 -17z"/>
</g>
</svg>